<svg width="24" height="24" viewBox="0 0 24 24" fill="none" xmlns="http://www.w3.org/2000/svg">
<path d="M21 10.5C21.0034 11.8199 20.6951 13.1219 20.1 14.3C19.3944 15.7118 18.3098 16.8992 16.9674 17.7293C15.6251 18.5594 14.0782 18.9994 12.5 19C11.1801 19.0035 9.87812 18.6951 8.7 18.1L3 20L4.9 14.3C4.30493 13.1219 3.99656 11.8199 4 10.5C4.00061 8.92179 4.44061 7.37488 5.27072 6.03258C6.10083 4.69028 7.28825 3.6056 8.7 2.90003C9.87812 2.30496 11.1801 1.99659 12.5 2.00003H13C15.0843 2.11502 17.053 2.99479 18.5291 4.47089C20.0052 5.94699 20.885 7.91568 21 10V10.5Z" stroke="black" stroke-width="2" stroke-linecap="round" stroke-linejoin="round"/>
</svg>
